<svg width="216" height="40" viewBox="0 0 216 40" fill="none" xmlns="http://www.w3.org/2000/svg">
<path d="M205.027 30.5594C203.401 30.5594 202.174 30.1061 201.347 29.1994C200.547 28.3194 200.147 27.2261 200.147 25.9194C200.147 24.7194 200.441 23.4527 201.027 22.1194C201.641 20.7861 202.441 19.5327 203.427 18.3594C204.441 17.1861 205.547 16.2394 206.747 15.5194C207.947 14.7727 209.134 14.3994 210.307 14.3994C210.921 14.3994 211.481 14.5594 211.987 14.8794C212.521 15.1994 212.787 15.8527 212.787 16.8394C212.787 17.8527 212.481 18.8127 211.867 19.7194C211.281 20.5994 210.494 21.3861 209.507 22.0794C208.547 22.7727 207.481 23.3461 206.307 23.7994C205.161 24.2261 204.014 24.4927 202.867 24.5994C202.814 24.8661 202.774 25.1194 202.747 25.3594C202.721 25.5994 202.707 25.8261 202.707 26.0394C202.707 26.4394 202.747 26.8394 202.827 27.2394C202.934 27.6394 203.107 28.0128 203.347 28.3594C203.587 28.6794 203.907 28.9327 204.307 29.1194C204.734 29.3061 205.254 29.3994 205.867 29.3994C207.014 29.3994 208.147 29.0794 209.267 28.4394C210.387 27.7727 211.427 26.9061 212.387 25.8394C213.347 24.7727 214.161 23.5994 214.827 22.3194L215.307 22.6794C214.587 24.2794 213.667 25.6661 212.547 26.8394C211.454 28.0127 210.254 28.9194 208.947 29.5594C207.667 30.2261 206.361 30.5594 205.027 30.5594ZM203.067 23.8394C203.787 23.5994 204.601 23.2527 205.507 22.7994C206.414 22.3194 207.281 21.7594 208.107 21.1194C208.961 20.4794 209.654 19.7727 210.187 18.9994C210.747 18.2261 211.027 17.4127 211.027 16.5594C211.027 16.2661 210.974 16.0394 210.867 15.8794C210.761 15.7194 210.534 15.6394 210.187 15.6394C209.547 15.6394 208.867 15.8927 208.147 16.3994C207.427 16.8794 206.734 17.5194 206.067 18.3194C205.401 19.1194 204.801 19.9994 204.267 20.9594C203.734 21.9194 203.334 22.8794 203.067 23.8394Z" fill="white"/>
<path d="M191.858 31.0403C190.578 31.0403 189.511 30.6136 188.658 29.7603C187.805 28.9069 187.378 27.6269 187.378 25.9203C187.378 24.5869 187.631 23.2936 188.138 22.0403C188.671 20.7603 189.365 19.6136 190.218 18.6003C191.071 17.5869 192.018 16.7869 193.058 16.2003C194.098 15.5869 195.125 15.2803 196.138 15.2803C197.231 15.2803 197.978 15.6003 198.378 16.2403C198.778 16.8803 198.978 17.5469 198.978 18.2403C198.978 19.0136 198.791 19.6936 198.418 20.2803C198.071 20.8669 197.591 21.1603 196.978 21.1603C196.525 21.1603 196.138 20.9603 195.818 20.5603C196.218 20.3469 196.565 19.9203 196.858 19.2803C197.151 18.6136 197.298 17.9869 197.298 17.4003C197.298 17.0803 197.231 16.8403 197.098 16.6803C196.991 16.4936 196.765 16.4003 196.418 16.4003C195.698 16.4003 194.951 16.7203 194.178 17.3603C193.431 18.0003 192.725 18.8269 192.058 19.8403C191.418 20.8536 190.885 21.9203 190.458 23.0403C190.058 24.1603 189.858 25.2136 189.858 26.2003C189.858 27.0269 190.058 27.7869 190.458 28.4803C190.858 29.1736 191.631 29.5203 192.778 29.5203C193.845 29.5203 194.911 29.2269 195.978 28.6403C197.071 28.0536 198.085 27.2136 199.018 26.1203C199.951 25.0269 200.698 23.7469 201.258 22.2803L201.778 22.6803C201.165 24.2803 200.325 25.7203 199.258 27.0003C198.191 28.2536 197.018 29.2403 195.738 29.9603C194.458 30.6803 193.165 31.0403 191.858 31.0403Z" fill="white"/>
<path d="M181.665 29.6001C180.732 29.6001 180.025 29.3601 179.545 28.8801C179.092 28.4001 178.865 27.7868 178.865 27.0401C178.865 26.4801 178.958 25.8935 179.145 25.2801C179.358 24.6668 179.558 24.0401 179.745 23.4001C179.932 22.7335 180.025 22.0935 180.025 21.4801C180.025 20.7335 179.865 20.2268 179.545 19.9601C179.252 19.6668 178.878 19.5201 178.425 19.5201C177.598 19.5201 176.758 19.8668 175.905 20.5601C175.052 21.2268 174.225 22.0935 173.425 23.1601C172.625 24.2001 171.878 25.2801 171.185 26.4001C170.492 27.5201 169.878 28.5201 169.345 29.4001C168.918 29.4001 168.518 29.3201 168.145 29.1601C167.745 29.0268 167.438 28.8135 167.225 28.5201C167.225 28.3868 167.372 27.9735 167.665 27.2801C167.932 26.5868 168.252 25.7334 168.625 24.7201C168.998 23.7068 169.332 22.6668 169.625 21.6001C169.918 20.5334 170.065 19.5601 170.065 18.6801C170.225 18.4935 170.478 18.3068 170.825 18.1201C171.172 17.9335 171.532 17.8401 171.905 17.8401C172.625 17.8401 172.985 18.1868 172.985 18.8801C172.985 19.3068 172.865 20.0268 172.625 21.0401C172.385 22.0268 172.078 23.0668 171.705 24.1601C172.425 23.0668 173.225 21.9868 174.105 20.9201C175.012 19.8268 175.972 18.9201 176.985 18.2001C177.998 17.4801 179.012 17.1201 180.025 17.1201C181.065 17.1201 181.812 17.4935 182.265 18.2401C182.745 18.9868 182.985 19.8135 182.985 20.7201C182.985 21.5468 182.852 22.3201 182.585 23.0401C182.318 23.7335 182.038 24.4134 181.745 25.0801C181.478 25.7201 181.345 26.3735 181.345 27.0401C181.345 27.6001 181.452 28.0001 181.665 28.2401C181.905 28.4534 182.198 28.5601 182.545 28.5601C183.212 28.5601 183.878 28.2535 184.545 27.6401C185.212 27.0001 185.852 26.2001 186.465 25.2401C187.105 24.2801 187.665 23.3068 188.145 22.3201L188.585 22.8401C188.025 24.1468 187.398 25.3068 186.705 26.3201C186.012 27.3335 185.252 28.1334 184.425 28.7201C183.598 29.3068 182.678 29.6001 181.665 29.6001Z" fill="white"/>
<path d="M159.545 30.5594C157.918 30.5594 156.691 30.1061 155.865 29.1994C155.065 28.3194 154.665 27.2261 154.665 25.9194C154.665 24.7194 154.958 23.4527 155.545 22.1194C156.158 20.7861 156.958 19.5327 157.945 18.3594C158.958 17.1861 160.065 16.2394 161.265 15.5194C162.465 14.7727 163.651 14.3994 164.825 14.3994C165.438 14.3994 165.998 14.5594 166.505 14.8794C167.038 15.1994 167.305 15.8527 167.305 16.8394C167.305 17.8527 166.998 18.8127 166.385 19.7194C165.798 20.5994 165.011 21.3861 164.025 22.0794C163.065 22.7727 161.998 23.3461 160.825 23.7994C159.678 24.2261 158.531 24.4927 157.385 24.5994C157.331 24.8661 157.291 25.1194 157.265 25.3594C157.238 25.5994 157.225 25.8261 157.225 26.0394C157.225 26.4394 157.265 26.8394 157.345 27.2394C157.451 27.6394 157.625 28.0128 157.865 28.3594C158.105 28.6794 158.425 28.9327 158.825 29.1194C159.251 29.3061 159.771 29.3994 160.385 29.3994C161.531 29.3994 162.665 29.0794 163.785 28.4394C164.905 27.7727 165.945 26.9061 166.905 25.8394C167.865 24.7727 168.678 23.5994 169.345 22.3194L169.825 22.6794C169.105 24.2794 168.185 25.6661 167.065 26.8394C165.971 28.0127 164.771 28.9194 163.465 29.5594C162.185 30.2261 160.878 30.5594 159.545 30.5594ZM157.585 23.8394C158.305 23.5994 159.118 23.2527 160.025 22.7994C160.931 22.3194 161.798 21.7594 162.625 21.1194C163.478 20.4794 164.171 19.7727 164.705 18.9994C165.265 18.2261 165.545 17.4127 165.545 16.5594C165.545 16.2661 165.491 16.0394 165.385 15.8794C165.278 15.7194 165.051 15.6394 164.705 15.6394C164.065 15.6394 163.385 15.8927 162.665 16.3994C161.945 16.8794 161.251 17.5194 160.585 18.3194C159.918 19.1194 159.318 19.9994 158.785 20.9594C158.251 21.9194 157.851 22.8794 157.585 23.8394Z" fill="white"/>
<path d="M148.256 29.8401C147.216 29.8401 146.443 29.5068 145.936 28.8401C145.43 28.2001 145.176 27.4135 145.176 26.4801C145.176 25.8668 145.283 25.0935 145.496 24.1601C145.736 23.2268 146.043 22.2534 146.416 21.2401C146.79 20.2001 147.216 19.2268 147.696 18.3201C148.203 17.4134 148.736 16.6801 149.296 16.1201C149.856 15.5335 150.403 15.2401 150.936 15.2401C151.176 15.2401 151.376 15.3201 151.536 15.4801C151.723 15.6135 151.816 15.8268 151.816 16.1201C151.816 16.4401 151.603 16.9601 151.176 17.6801C150.776 18.4001 150.296 19.2268 149.736 20.1601C149.176 21.0935 148.683 22.0801 148.256 23.1201C147.856 24.1335 147.656 25.1068 147.656 26.0401C147.656 27.0001 147.816 27.6401 148.136 27.9601C148.456 28.2801 148.95 28.4401 149.616 28.4401C150.523 28.4401 151.483 27.9868 152.496 27.0801C153.536 26.1734 154.63 24.5868 155.776 22.3201L156.136 22.7201C155.363 25.0135 154.243 26.7735 152.776 28.0001C151.336 29.2268 149.83 29.8401 148.256 29.8401ZM153.056 11.5201C152.63 11.5201 152.243 11.4135 151.896 11.2001C151.576 10.9868 151.416 10.6534 151.416 10.2001C151.416 9.64012 151.736 9.16012 152.376 8.76012C153.043 8.33345 153.696 8.12012 154.336 8.12012C154.736 8.12012 155.056 8.21345 155.296 8.40012C155.536 8.58678 155.656 8.90678 155.656 9.36012C155.656 9.86678 155.376 10.3601 154.816 10.8401C154.283 11.2935 153.696 11.5201 153.056 11.5201Z" fill="white"/>
<path d="M136.526 31.0403C135.246 31.0403 134.18 30.6136 133.326 29.7603C132.473 28.9069 132.046 27.6269 132.046 25.9203C132.046 24.5869 132.3 23.2936 132.806 22.0403C133.34 20.7603 134.033 19.6136 134.886 18.6003C135.74 17.5869 136.686 16.7869 137.726 16.2003C138.766 15.5869 139.793 15.2803 140.806 15.2803C141.9 15.2803 142.646 15.6003 143.046 16.2403C143.446 16.8803 143.646 17.5469 143.646 18.2403C143.646 19.0136 143.46 19.6936 143.086 20.2803C142.74 20.8669 142.26 21.1603 141.646 21.1603C141.193 21.1603 140.806 20.9603 140.486 20.5603C140.886 20.3469 141.233 19.9203 141.526 19.2803C141.82 18.6136 141.966 17.9869 141.966 17.4003C141.966 17.0803 141.9 16.8403 141.766 16.6803C141.66 16.4936 141.433 16.4003 141.086 16.4003C140.366 16.4003 139.62 16.7203 138.846 17.3603C138.1 18.0003 137.393 18.8269 136.726 19.8403C136.086 20.8536 135.553 21.9203 135.126 23.0403C134.726 24.1603 134.526 25.2136 134.526 26.2003C134.526 27.0269 134.726 27.7869 135.126 28.4803C135.526 29.1736 136.3 29.5203 137.446 29.5203C138.513 29.5203 139.58 29.2269 140.646 28.6403C141.74 28.0536 142.753 27.2136 143.686 26.1203C144.62 25.0269 145.366 23.7469 145.926 22.2803L146.446 22.6803C145.833 24.2803 144.993 25.7203 143.926 27.0003C142.86 28.2536 141.686 29.2403 140.406 29.9603C139.126 30.6803 137.833 31.0403 136.526 31.0403Z" fill="white"/>
<path d="M118.721 32.28C117.281 32.28 115.921 32.0133 114.641 31.48C113.361 30.9733 112.321 30.1867 111.521 29.12C110.748 28.0533 110.361 26.72 110.361 25.12C110.361 23.7333 110.628 22.6533 111.161 21.88C111.721 21.1067 112.401 20.56 113.201 20.24C114.001 19.92 114.761 19.76 115.481 19.76C114.761 20.5333 114.215 21.3867 113.841 22.32C113.468 23.2533 113.281 24.1867 113.281 25.12C113.281 26.1067 113.495 27.0267 113.921 27.88C114.375 28.7333 115.055 29.4133 115.961 29.92C116.868 30.4533 118.015 30.72 119.401 30.72C120.601 30.72 121.775 30.4933 122.921 30.04C124.068 29.6133 125.001 28.9733 125.721 28.12C126.468 27.24 126.841 26.16 126.841 24.88C126.841 23.7333 126.548 22.7467 125.961 21.92C125.375 21.0933 124.615 20.36 123.681 19.72C122.775 19.08 121.801 18.4667 120.761 17.88C119.721 17.2933 118.735 16.68 117.801 16.04C116.895 15.3733 116.148 14.6133 115.561 13.76C114.975 12.9067 114.681 11.88 114.681 10.68C114.681 9.56 114.948 8.38667 115.481 7.16C116.015 5.93333 116.775 4.77333 117.761 3.68C118.775 2.58667 119.975 1.70667 121.361 1.04C122.775 0.346667 124.348 0 126.081 0C127.655 0 128.748 0.386667 129.361 1.16C129.975 1.90667 130.281 2.85333 130.281 4C130.281 4.96 130.108 6 129.761 7.12C129.441 8.21333 129.041 9.26667 128.561 10.28C128.081 11.2667 127.628 12.1067 127.201 12.8C126.721 12.6933 126.375 12.4933 126.161 12.2C125.975 11.88 125.881 11.5067 125.881 11.08C125.881 10.52 126.001 9.88 126.241 9.16C126.481 8.44 126.748 7.69333 127.041 6.92C127.361 6.14667 127.641 5.4 127.881 4.68C128.121 3.93333 128.241 3.26667 128.241 2.68C128.241 2.14667 128.081 1.73333 127.761 1.44C127.441 1.12 126.855 0.959999 126.001 0.959999C124.748 0.959999 123.588 1.25333 122.521 1.84C121.455 2.42667 120.521 3.18667 119.721 4.12C118.921 5.02667 118.295 5.98667 117.841 7C117.415 8.01333 117.201 8.93333 117.201 9.76C117.201 10.7467 117.481 11.6 118.041 12.32C118.628 13.0133 119.375 13.6533 120.281 14.24C121.188 14.8 122.148 15.3733 123.161 15.96C124.201 16.52 125.175 17.1467 126.081 17.84C126.988 18.5333 127.721 19.36 128.281 20.32C128.868 21.2533 129.161 22.4 129.161 23.76C129.161 25.1467 128.855 26.3733 128.241 27.44C127.628 28.48 126.801 29.36 125.761 30.08C124.748 30.8 123.628 31.3467 122.401 31.72C121.175 32.0933 119.948 32.28 118.721 32.28Z" fill="white"/>
<path d="M85.9839 39.9995C85.3172 39.9995 84.7305 39.8128 84.2239 39.4395C83.7172 39.0928 83.4639 38.5728 83.4639 37.8795C83.4639 37.0261 83.6772 36.2661 84.1039 35.5995C84.5305 34.9328 85.1039 34.3195 85.8239 33.7595C86.5439 33.1995 87.3705 32.6661 88.3039 32.1595C89.2372 31.6528 90.2105 31.1461 91.2239 30.6395C91.5972 29.6528 91.9705 28.5595 92.3439 27.3595C92.7439 26.1328 93.1172 24.7861 93.4639 23.3195C92.6105 24.7061 91.6905 25.9061 90.7039 26.9195C89.7439 27.9061 88.7172 28.3995 87.6239 28.3995C87.1172 28.3995 86.6105 28.2928 86.1039 28.0795C85.6239 27.8395 85.2239 27.4795 84.9039 26.9995C84.5839 26.5195 84.4239 25.9061 84.4239 25.1595C84.4239 24.4128 84.5439 23.5461 84.7839 22.5595C85.0505 21.5728 85.3705 20.6128 85.7439 19.6795C86.1172 18.7461 86.5039 17.9728 86.9039 17.3595C87.3039 16.7461 87.6505 16.4395 87.9439 16.4395C88.0505 16.4395 88.2372 16.4795 88.5039 16.5595C88.7972 16.6395 89.0639 16.7595 89.3039 16.9195C89.5705 17.0528 89.7039 17.1995 89.7039 17.3595C89.4639 17.7061 89.1972 18.1995 88.9039 18.8395C88.6105 19.4795 88.3172 20.1995 88.0239 20.9995C87.7572 21.7728 87.5305 22.5328 87.3439 23.2795C87.1572 24.0261 87.0639 24.6661 87.0639 25.1995C87.0639 25.6795 87.1705 26.0661 87.3839 26.3595C87.5972 26.6528 87.9705 26.7995 88.5039 26.7995C89.0105 26.7995 89.5705 26.5595 90.1839 26.0795C90.8239 25.5728 91.4505 24.9328 92.0639 24.1595C92.7039 23.3861 93.2905 22.5595 93.8239 21.6795C93.9039 21.3861 93.9705 21.0928 94.0239 20.7995C94.1039 20.4795 94.1705 20.1595 94.2239 19.8395C94.3039 19.4661 94.4905 19.0395 94.7839 18.5595C95.1039 18.0528 95.5972 17.7995 96.2639 17.7995C96.3972 17.7995 96.5305 17.8128 96.6639 17.8395C96.7972 17.8395 96.9439 17.8661 97.1039 17.9195C97.1039 18.3461 96.9705 19.1461 96.7039 20.3195C96.4639 21.4661 96.1039 22.8128 95.6239 24.3595C95.1705 25.9061 94.6239 27.4928 93.9839 29.1195C95.2372 28.6395 96.4639 27.8528 97.6639 26.7595C98.8639 25.6395 99.8372 24.1595 100.584 22.3195L101.104 22.7195C100.704 23.9995 100.091 25.1195 99.2639 26.0795C98.4639 27.0128 97.5572 27.8261 96.5439 28.5195C95.5305 29.1861 94.5305 29.7461 93.5439 30.1995C92.8505 31.9061 92.0905 33.5061 91.2639 34.9995C90.4639 36.4928 89.6105 37.6928 88.7039 38.5995C87.8239 39.5328 86.9172 39.9995 85.9839 39.9995ZM85.7839 38.7195C86.1839 38.7195 86.8505 38.1861 87.7839 37.1195C88.7439 36.0795 89.7572 34.2395 90.8239 31.5995C89.7305 32.1861 88.7172 32.7595 87.7839 33.3195C86.8505 33.9061 86.1039 34.5328 85.5439 35.1995C84.9839 35.8661 84.7039 36.6395 84.7039 37.5195C84.7039 37.7328 84.7839 37.9861 84.9439 38.2795C85.1039 38.5728 85.3839 38.7195 85.7839 38.7195Z" fill="white"/>
<path d="M76.0576 30.6399C74.9109 30.6399 74.0309 30.3066 73.4176 29.6399C72.8042 28.9733 72.4976 27.9866 72.4976 26.6799C72.4976 25.5066 72.7109 24.0666 73.1376 22.3599C73.5909 20.6266 74.1509 18.8533 74.8176 17.0399C74.5509 16.9866 74.2976 16.9466 74.0576 16.9199C73.8176 16.8666 73.5909 16.7999 73.3776 16.7199V15.9999C73.5909 16.0266 73.8442 16.0533 74.1376 16.0799C74.4309 16.1066 74.7642 16.1333 75.1376 16.1599C75.6976 14.7199 76.2976 13.3333 76.9376 11.9999C77.5776 10.6399 78.2042 9.43992 78.8176 8.39992C79.4576 7.33325 80.0576 6.49326 80.6176 5.87992C81.2042 5.23992 81.6976 4.91992 82.0976 4.91992C82.3109 4.91992 82.4976 4.99992 82.6576 5.15992C82.8442 5.29325 82.9376 5.50659 82.9376 5.79992C82.9376 6.25325 82.6576 6.99992 82.0976 8.03992C81.5376 9.05325 80.8442 10.2666 80.0176 11.6799C79.1909 13.0933 78.3909 14.6266 77.6176 16.2799C77.8576 16.2799 78.0976 16.2799 78.3376 16.2799C78.6042 16.2799 78.8576 16.2799 79.0976 16.2799C79.9776 16.2799 80.8976 16.2666 81.8576 16.2399C82.8442 16.2133 83.8309 16.1466 84.8176 16.0399V16.7599C83.3509 16.9199 82.0309 17.0399 80.8576 17.1199C79.7109 17.1999 78.6842 17.2399 77.7776 17.2399C77.6709 17.2399 77.5642 17.2399 77.4576 17.2399C77.3776 17.2399 77.2842 17.2399 77.1776 17.2399C76.5642 18.6533 76.0442 20.1066 75.6176 21.5999C75.1909 23.0933 74.9776 24.5466 74.9776 25.9599C74.9776 27.1066 75.1509 27.9333 75.4976 28.4399C75.8442 28.9199 76.4176 29.1599 77.2176 29.1599C78.6042 29.1599 79.9642 28.5466 81.2976 27.3199C82.6309 26.0933 83.8042 24.4266 84.8176 22.3199L85.3376 22.7199C84.6976 24.2133 83.8842 25.5599 82.8976 26.7599C81.9376 27.9599 80.8709 28.9066 79.6976 29.5999C78.5242 30.2933 77.3109 30.6399 76.0576 30.6399Z" fill="white"/>
<path d="M57.9185 29.9999C57.0118 29.9999 56.2785 29.5999 55.7185 28.7999C55.1851 27.9732 54.9185 27.0265 54.9185 25.9599C54.9185 25.1865 55.0385 24.2932 55.2785 23.2799C55.5451 22.2665 55.8651 21.2665 56.2385 20.2799C56.6118 19.2932 56.9985 18.4799 57.3985 17.8399C57.7985 17.1999 58.1451 16.8799 58.4385 16.8799C58.5718 16.8799 58.7985 16.9599 59.1185 17.1199C59.4385 17.2532 59.7051 17.4399 59.9185 17.6799C59.6251 18.1332 59.2651 18.8265 58.8385 19.7599C58.4118 20.6932 58.0385 21.6932 57.7185 22.7599C57.3985 23.8265 57.2385 24.8132 57.2385 25.7199C57.2385 25.9332 57.2651 26.2665 57.3185 26.7199C57.3718 27.1465 57.5051 27.5332 57.7185 27.8799C57.9318 28.2266 58.2518 28.3999 58.6785 28.3999C59.1851 28.3999 59.7051 28.1465 60.2385 27.6399C60.7718 27.1065 61.3051 26.4265 61.8385 25.5999C62.3985 24.7732 62.9318 23.8799 63.4385 22.9199C63.9451 21.9599 64.4118 21.0399 64.8385 20.1599C65.2918 19.2799 65.6651 18.5465 65.9585 17.9599C66.1185 17.9865 66.3451 18.0399 66.6385 18.1199C66.9585 18.1999 67.2385 18.3065 67.4785 18.4399C67.7451 18.5732 67.8785 18.7599 67.8785 18.9999C67.8785 19.1066 67.7451 19.4665 67.4785 20.0799C67.2118 20.6665 66.8918 21.3999 66.5185 22.2799C66.1718 23.1332 65.8651 23.9999 65.5985 24.8799C65.3318 25.7599 65.1985 26.5332 65.1985 27.1999C65.1985 27.6799 65.2918 28.0666 65.4785 28.3599C65.6918 28.6532 66.0385 28.7999 66.5185 28.7999C67.0785 28.7999 67.7585 28.5466 68.5585 28.0399C69.3585 27.5332 70.1718 26.7999 70.9985 25.8399C71.8251 24.8532 72.5585 23.6799 73.1985 22.3199L73.7185 22.6799C73.1585 24.1199 72.4251 25.3999 71.5185 26.5199C70.6118 27.6132 69.6518 28.4665 68.6385 29.0799C67.6251 29.6932 66.6385 29.9999 65.6785 29.9999C64.9851 29.9999 64.4251 29.8665 63.9985 29.5999C63.5985 29.3332 63.3051 28.9732 63.1185 28.5199C62.9585 28.0666 62.8785 27.5732 62.8785 27.0399C62.8785 26.7199 62.9051 26.3999 62.9585 26.0799C63.0118 25.7332 63.0785 25.3866 63.1585 25.0399C62.6785 25.9199 62.1585 26.7466 61.5985 27.5199C61.0385 28.2666 60.4518 28.8665 59.8385 29.3199C59.2251 29.7732 58.5851 29.9999 57.9185 29.9999Z" fill="white"/>
<path d="M39.2163 30.6801C38.3897 30.6801 37.6963 30.4001 37.1363 29.8401C36.5497 29.3067 36.2563 28.4801 36.2563 27.3601C36.2563 26.4001 36.4697 25.3734 36.8963 24.2801C37.323 23.1601 37.9097 22.0667 38.6563 21.0001C39.403 19.9067 40.243 18.9201 41.1763 18.0401C42.1363 17.1334 43.1363 16.4134 44.1763 15.8801C45.243 15.3467 46.2963 15.0801 47.3363 15.0801C48.3763 15.0801 49.243 15.3601 49.9363 15.9201C50.6297 16.4534 50.9763 17.1734 50.9763 18.0801C50.9763 18.7467 50.7897 19.2001 50.4163 19.4401C50.0697 19.6801 49.603 19.8001 49.0163 19.8001C49.0697 19.5867 49.1097 19.3601 49.1363 19.1201C49.1897 18.8534 49.2164 18.6134 49.2164 18.4001C49.2164 17.7867 49.0697 17.2667 48.7763 16.8401C48.483 16.3867 47.9763 16.1601 47.2563 16.1601C46.5097 16.1601 45.7497 16.4267 44.9763 16.9601C44.203 17.4667 43.4563 18.1601 42.7363 19.0401C42.0163 19.8934 41.3763 20.8267 40.8163 21.8401C40.2563 22.8534 39.8163 23.8534 39.4963 24.8401C39.1763 25.8267 39.0163 26.7067 39.0163 27.4801C39.0163 28.5201 39.3763 29.0401 40.0963 29.0401C40.7097 29.0401 41.3763 28.7601 42.0963 28.2001C42.8163 27.6134 43.5497 26.8801 44.2963 26.0001C45.0697 25.0934 45.803 24.1601 46.4963 23.2001C47.1897 22.2401 47.803 21.3601 48.3363 20.5601C48.443 20.4001 48.5097 20.3201 48.5364 20.3201C48.6963 20.3467 48.8963 20.4001 49.1363 20.4801C49.403 20.5601 49.6297 20.6667 49.8163 20.8001C50.003 20.9334 50.0963 21.1067 50.0963 21.3201C50.0963 21.5601 49.9764 21.8934 49.7364 22.3201C49.4964 22.7201 49.2297 23.1867 48.9363 23.7201C48.643 24.2534 48.3763 24.8001 48.1363 25.3601C47.8963 25.8934 47.7763 26.4001 47.7763 26.8801C47.7763 27.2801 47.883 27.6801 48.0963 28.0801C48.3097 28.4534 48.6563 28.6401 49.1363 28.6401C49.8563 28.6401 50.803 28.1201 51.9763 27.0801C53.1497 26.0134 54.3363 24.4267 55.5364 22.3201L55.9363 22.7201C55.3763 24.1601 54.6563 25.4267 53.7763 26.5201C52.8963 27.6134 51.9497 28.4667 50.9363 29.0801C49.9497 29.6934 48.9764 30.0001 48.0163 30.0001C47.0297 30.0001 46.2963 29.7067 45.8163 29.1201C45.363 28.5334 45.1363 27.8934 45.1363 27.2001C45.1363 27.0401 45.1497 26.8667 45.1763 26.6801C45.203 26.4667 45.2297 26.2534 45.2563 26.0401C44.1097 27.5867 43.0563 28.7467 42.0963 29.5201C41.163 30.2934 40.203 30.6801 39.2163 30.6801Z" fill="white"/>
<path d="M28.0963 30.5594C26.4696 30.5594 25.243 30.1061 24.4163 29.1994C23.6163 28.3194 23.2163 27.2261 23.2163 25.9194C23.2163 24.7194 23.5096 23.4527 24.0963 22.1194C24.7096 20.7861 25.5096 19.5327 26.4963 18.3594C27.5096 17.1861 28.6163 16.2394 29.8163 15.5194C31.0163 14.7727 32.203 14.3994 33.3763 14.3994C33.9896 14.3994 34.5496 14.5594 35.0563 14.8794C35.5896 15.1994 35.8563 15.8527 35.8563 16.8394C35.8563 17.8527 35.5496 18.8127 34.9363 19.7194C34.3496 20.5994 33.563 21.3861 32.5763 22.0794C31.6163 22.7727 30.5496 23.3461 29.3763 23.7994C28.2296 24.2261 27.083 24.4927 25.9363 24.5994C25.883 24.8661 25.843 25.1194 25.8163 25.3594C25.7896 25.5994 25.7763 25.8261 25.7763 26.0394C25.7763 26.4394 25.8163 26.8394 25.8963 27.2394C26.003 27.6394 26.1763 28.0128 26.4163 28.3594C26.6563 28.6794 26.9763 28.9327 27.3763 29.1194C27.803 29.3061 28.323 29.3994 28.9363 29.3994C30.083 29.3994 31.2163 29.0794 32.3363 28.4394C33.4563 27.7727 34.4963 26.9061 35.4563 25.8394C36.4163 24.7727 37.2296 23.5994 37.8963 22.3194L38.3763 22.6794C37.6563 24.2794 36.7363 25.6661 35.6163 26.8394C34.523 28.0127 33.323 28.9194 32.0163 29.5594C30.7363 30.2261 29.4296 30.5594 28.0963 30.5594ZM26.1363 23.8394C26.8563 23.5994 27.6696 23.2527 28.5763 22.7994C29.483 22.3194 30.3496 21.7594 31.1763 21.1194C32.0296 20.4794 32.723 19.7727 33.2563 18.9994C33.8163 18.2261 34.0963 17.4127 34.0963 16.5594C34.0963 16.2661 34.043 16.0394 33.9363 15.8794C33.8296 15.7194 33.603 15.6394 33.2563 15.6394C32.6163 15.6394 31.9363 15.8927 31.2163 16.3994C30.4963 16.8794 29.803 17.5194 29.1363 18.3194C28.4696 19.1194 27.8696 19.9994 27.3363 20.9594C26.803 21.9194 26.403 22.8794 26.1363 23.8394Z" fill="white"/>
<path d="M4.44 32.28C2.97333 32.28 1.86667 32.0267 1.12 31.52C0.373333 31.04 0 30.2267 0 29.08C0 29 0.0666667 28.96 0.2 28.96C0.386667 28.96 0.72 29.0267 1.2 29.16C1.68 29.2933 2.6 29.36 3.96 29.36C6.25333 29.36 8.37333 29.1067 10.32 28.6C12.2667 28.0667 13.9467 27.3467 15.36 26.44C16.8 25.5333 17.9067 24.52 18.68 23.4C19.48 22.2533 19.88 21.08 19.88 19.88C19.88 18.7867 19.5733 17.9067 18.96 17.24C18.3467 16.5733 17.5333 16.0667 16.52 15.72C15.5333 15.3733 14.4533 15.1467 13.28 15.04C12.1067 14.9067 10.9467 14.84 9.8 14.84C9.29333 14.84 8.77333 14.8533 8.24 14.88C7.73333 14.88 7.25333 14.88 6.8 14.88C6.18667 17.04 5.58667 19.2133 5 21.4C4.41333 23.5867 3.81333 25.7067 3.2 27.76C2.53333 27.76 1.97333 27.5733 1.52 27.2C1.06667 26.8267 0.84 26.3733 0.84 25.84C0.84 25.52 0.906667 25.1467 1.04 24.72C1.17333 24.2933 1.29333 23.9067 1.4 23.56C1.56 23.0267 1.84 22.1333 2.24 20.88C2.64 19.6267 3.12 18.16 3.68 16.48C4.26667 14.8 4.90667 13.04 5.6 11.2C6.29333 9.36 7 7.56 7.72 5.8C8.46667 4.04 9.18667 2.48 9.88 1.12C8.76 1.30667 7.81333 1.57333 7.04 1.92C6.29333 2.26667 5.70667 2.58667 5.28 2.88C4.85333 3.14667 4.54667 3.28 4.36 3.28C4.22667 3.28 4.05333 3.22667 3.84 3.12C3.65333 2.98667 3.48 2.84 3.32 2.68C3.16 2.49333 3.08 2.33333 3.08 2.2C4.41333 1.64 5.8 1.13333 7.24 0.68C8.70667 0.226666 10.48 0 12.56 0C13.44 0 14.4133 0.0800002 15.48 0.24C16.5467 0.373333 17.56 0.666666 18.52 1.12C19.48 1.54667 20.2667 2.18667 20.88 3.04C21.4933 3.86667 21.8 4.97333 21.8 6.36C21.8 7.66667 21.52 8.78667 20.96 9.72C20.4 10.6267 19.6667 11.3867 18.76 12C17.8533 12.5867 16.8667 13.0533 15.8 13.4C14.7333 13.7467 13.68 14 12.64 14.16C14.6133 14.2667 16.2 14.5467 17.4 15C18.6267 15.4533 19.5467 16 20.16 16.64C20.8 17.2533 21.2267 17.9067 21.44 18.6C21.6533 19.2933 21.76 19.96 21.76 20.6C21.76 22.1467 21.36 23.5467 20.56 24.8C19.76 26.0533 18.7067 27.1467 17.4 28.08C16.0933 29.0133 14.6667 29.7867 13.12 30.4C11.5733 31.04 10.04 31.5067 8.52 31.8C7 32.12 5.64 32.28 4.44 32.28ZM7.04 13.96C8.50667 13.9067 9.96 13.7467 11.4 13.48C12.8667 13.1867 14.2 12.7333 15.4 12.12C16.6 11.5067 17.56 10.7067 18.28 9.72C19.0267 8.73333 19.4 7.50667 19.4 6.04C19.4 4.65333 19.0667 3.58667 18.4 2.84C17.76 2.09333 16.92 1.57333 15.88 1.28C14.8667 0.986666 13.7867 0.839998 12.64 0.839998C12.5067 0.839998 12.3733 0.839998 12.24 0.839998C12.1333 0.839998 12.0133 0.853333 11.88 0.880001C10.92 2.74667 10.04 4.8 9.24 7.04C8.46667 9.28 7.73333 11.5867 7.04 13.96Z" fill="white"/>
</svg>
