<svg width="950" height="124" viewBox="0 0 950 124" fill="none" xmlns="http://www.w3.org/2000/svg">
<g clip-path="url(#clip0_141_58)">
<path d="M11.8955 4.23901C12.1694 4.21443 12.4438 4.19565 12.7184 4.18268C27.8873 3.48495 43.2209 19.8966 53.3591 29.1927L53.1829 29.5125C50.4288 28.5244 47.3673 25.4165 44.6187 24.0789C24.6724 14.3726 17.6648 22.6606 23.077 42.6853C38.8272 30.6528 76.1168 33.5482 96.6974 33.5885C95.7053 36.8498 94.748 40.1216 93.8251 43.4032C82.6239 43.7967 70.8582 43.1723 59.5833 43.382C46.09 43.6329 36.7432 45.2219 30.6741 58.8613C33.3197 63.5305 42.6163 76.2412 46.6368 79.3747L63.5335 79.3691C64.9504 75.9384 66.6938 70.2381 67.9493 66.5688C59.946 66.6022 51.9422 66.5604 43.9397 66.4424C45.1467 62.9811 46.1051 59.8709 47.1187 56.346C60.5689 55.9043 76.4146 56.313 90.06 56.3079C89.092 58.5399 88.2952 60.7807 87.6264 63.1191C85.0523 72.12 81.8558 81.0145 79.3805 90.0303L70.6134 90.08C66.2407 90.0401 61.867 90.08 57.4957 90.2003C62.1681 92.6719 66.0514 96.0348 71.2172 98.0657C90.8879 105.8 92.2027 88.8005 86.4312 74.9799C89.0693 78.8675 89.8986 80.1145 91.5404 84.3922C95.8667 68.4831 101.999 49.7721 107.214 33.9804C113.08 33.7683 119.999 33.9312 125.947 33.9198C121.141 51.9535 113.709 71.2134 108.66 89.3495L93.6683 89.3216C102.447 109.814 99.1546 129.137 73.5608 112.735C51.6468 98.6922 34.4119 76.4902 20.6673 54.7298C15.436 46.4478 -4.96395 8.0912 11.8955 4.23901Z" fill="black"/>
<path d="M340.751 33.1907C341.378 33.1283 342.006 33.0851 342.635 33.0613C374.305 31.8041 389.427 47.4957 367.761 76.371C360.085 86.5998 341.553 90.1652 329.057 90.5697C319.97 90.6444 302.506 90.1847 295.588 83.4487C283.405 71.5865 296.121 46.878 308.996 40.0992C318.911 34.879 329.731 33.587 340.751 33.1907ZM330.827 80.7337C338.66 80.0339 345.916 78.2612 351.107 71.7593C362.232 57.8262 360.943 41.0647 339.236 42.8368C339.006 42.8577 338.777 42.8919 338.551 42.9389C330.846 43.3915 323.506 44.8009 318.019 50.8966C312.664 56.8449 306.732 70.4975 314.055 77.0072C318.407 80.8758 325.305 80.7932 330.827 80.7337Z" fill="black"/>
<path d="M199.786 32.9836L248.257 32.9576C258.404 32.9563 295.157 29.0254 287.983 48.2251C283.774 59.4886 280.136 79.252 274.877 89.2983L257.722 89.2858C259.618 81.8072 271.653 48.8186 269.953 44.8927C265.998 41.9986 257.114 42.7326 252.056 42.8079C250.405 46.4431 246.479 60.1425 245.133 64.451C242.093 71.9569 240.557 81.7 237.218 89.2928L219.094 89.2468C223.928 76.022 229.958 56.3227 233.881 42.791C227.938 42.7032 219.83 42.5799 214.093 42.9807C208.981 57.2929 204.429 74.6078 199.592 89.263C193.587 89.3099 187.683 89.3908 181.679 89.1516C183.792 84.245 185.728 77.3377 187.319 72.1362L194.999 47.1165C196.44 42.4498 197.825 37.4323 199.786 32.9836Z" fill="black"/>
<path d="M760.578 34.2989C765.485 33.9476 773.472 34.1765 778.611 34.1802C780.661 38.9291 783.754 49.0693 785.433 54.2778L796.704 89.6127C792.775 89.5244 781.537 89.8277 778.305 89.2569C767.387 87.3305 754.322 81.8792 743.65 78.3408C742.166 78.0575 740.375 77.4091 738.905 76.9247C735.19 80.0735 730.673 85.6962 727.398 89.5198C721.123 89.4887 714.347 89.3266 708.127 89.6601C713.828 84.3262 719.426 77.9251 724.861 72.1844L760.578 34.2989ZM747.119 66.5775C751.247 68.1755 755.263 69.2841 759.354 70.7986C763.741 71.8259 768.992 73.9641 773.291 75.5788C772.303 72.0697 765.982 47.089 765.119 46.3623C759.308 52.8785 753.199 60.4731 747.119 66.5775Z" fill="black"/>
<path d="M647.639 34.1455L647.996 34.1164L648.409 34.7975C648.047 37.7505 646.679 41.4466 645.723 44.3438C633.155 44.6247 620.539 44.2792 607.961 44.3211C603.082 44.3374 594.168 44.1751 590.531 47.8678C589.367 49.0498 587.378 51.2711 587.419 53.0313C587.619 61.4791 630.061 52.9546 639.351 61.9565C640.775 63.3219 641.596 65.2042 641.619 67.1798C641.846 92.2636 609.515 89.5709 592.711 89.5393C582.633 89.4914 572.55 89.4947 562.472 89.549L561.572 89.4241C561.219 88.3374 563.293 81.3232 563.687 79.6327C575.337 78.957 587.429 79.5826 599.116 79.5738C604.07 79.5696 609.389 79.8626 614.283 79.0708C616.402 78.7281 619.241 77.8707 620.818 76.3252C621.829 75.3345 622.58 73.5855 622.58 72.1491C622.571 62.4669 581.441 72.4807 571.196 62.2978C569.54 60.6542 568.914 58.7176 568.9 56.4169C568.877 51.221 570.825 46.4339 574.484 42.7711C577.768 39.4814 581.756 37.5544 586.195 36.3572C600.239 32.5676 631.758 34.1613 647.639 34.1455Z" fill="black"/>
<path d="M475.018 33.9815C488.496 33.5807 502.387 34.0648 515.865 33.9055C522.97 33.9026 542.788 34.4236 543.349 44.6511C544.082 57.9651 531.444 64.8706 520.549 66.1064C525.442 73.6012 529.542 81.5376 534.635 89.0538C528.818 89.4978 520.197 89.3603 514.204 89.4351C510.229 82.6448 506.751 74.8101 502.758 67.8103L486.409 67.7969L482.216 67.8624C480.069 74.7938 477.235 82.3922 475.551 89.3083L457.217 89.2744C458.429 86.9207 460.332 80.2684 461.28 77.2562C463.376 70.7993 465.427 64.3272 467.425 57.8402C478.39 58.2911 508.569 58.9353 517.66 56.4641C519.719 55.904 521.412 54.6626 523.123 53.4366C525.377 47.2421 524.482 45.5443 517.562 44.557C511.718 43.7239 505.295 44.0793 499.358 44.0917L471.906 44.0962C472.833 40.5541 473.854 37.4567 475.018 33.9815Z" fill="black"/>
<path d="M447.376 34.067C452.427 33.7103 460.339 33.9285 465.608 33.9274C464.903 36.5126 464.128 38.8588 463.285 41.3934C460.126 50.9207 457.598 60.5667 454.205 70.0163C451.549 77.4126 447.286 82.4372 439.618 85.4615C424.067 91.1868 404.382 92.0497 388.621 86.7604C381.406 84.339 379.263 79.1449 380.938 72.121C382.687 64.7911 385.114 57.3088 387.525 50.1396C389.223 45.0889 390.459 38.7841 392.385 34.002C397.847 33.7506 404.883 33.9359 410.463 33.9266C408.06 44.2282 403.121 55.434 400.399 65.7975C398.897 71.5182 396.904 77.7103 404.738 79.7477C413.207 81.9504 430.963 81.6161 434.974 72.1066C439.987 60.224 443.689 46.525 447.376 34.067Z" fill="black"/>
<path d="M662.684 34.2823C664.048 34.1885 665.402 34.1893 666.766 34.1838C678.537 34.1357 719.393 31.7702 727.621 40.0063C729.745 42.1289 730.51 44.8179 730.496 47.7639C730.483 52.7773 728.678 57.3899 725.107 60.9399C712.459 73.5067 685.369 70.6305 668.872 70.5962C667.939 73.8968 664.206 87.2265 663.088 89.5542C657.212 89.4985 651.252 89.5551 645.366 89.5663C648.01 79.8725 651.989 70.0068 654.369 60.4221C663.529 60.3264 672.795 60.5192 681.951 60.4421C687.544 60.3947 696.199 60.7871 701.528 59.569C703.935 59.0395 706.152 57.8687 707.942 56.1806C712.714 51.6121 711.638 46.9252 705.321 45.3536C699.399 43.8802 692.001 44.3317 685.893 44.3384L659.141 44.3426C660.236 41.7088 661.664 37.1289 662.684 34.2823Z" fill="black"/>
<path d="M844.197 34.5553C854.906 33.8215 868.041 34.1305 878.935 34.1336C878.119 37.3829 876.867 40.8326 875.777 44.0315C865.096 44.5054 835.589 41.115 828.929 50.3318C804.167 84.5856 834.638 79.9878 858.259 79.8801L864.433 79.9409C863.714 82.9429 862.605 86.4953 861.747 89.5112L841.743 89.5586C831.058 89.5692 815.015 90.5589 806.319 83.4909C795.642 74.8132 802.9 57.2642 810.122 48.6362C818.906 38.1362 831.178 35.6316 844.197 34.5553Z" fill="black"/>
<path d="M134.778 33.9962C140.32 33.7581 147.256 33.937 152.902 33.9301C149.665 46.2087 143.598 60.1485 141.25 72.314C139.228 82.781 172.332 79.9662 178.109 79.9439C177.389 83.4113 176.894 84.8222 175.592 88.127L175.163 89.0391C171.936 90.4769 139.882 88.9193 135.136 87.8395C118.79 84.1195 122.982 71.8096 126.65 60.0417C129.141 52.0481 132.829 42.0445 134.778 33.9962Z" fill="black"/>
<path d="M14.2328 51.8184C14.9758 52.2832 16.0424 54.2854 16.5488 55.1561C23.9382 67.8566 32.4601 78.8132 41.7585 90.1339L36.3904 89.7452C26.355 89.7368 21.0764 88.4267 12.548 83.5837C10.7418 80.8251 9.31339 79.4067 8.4888 76.1335C6.17482 66.9478 9.91531 59.4242 14.2328 51.8184Z" fill="black"/>
<path d="M933.673 89.5484C926.577 89.5117 919.485 89.5191 912.394 89.5711C901.731 89.5981 885.544 90.6946 877.015 82.3745C868.328 73.9077 874.529 58.1555 880.837 49.9148C883.935 45.8709 890.632 40.2126 895.678 38.5443C912.816 32.8776 931.924 34.141 949.859 34.188V37.493C949.173 38.8316 948.19 42.4751 947.717 44.0782C940.138 44.2561 932.328 43.985 924.735 44.0507C912.561 44.156 902.246 44.6958 895.878 56.7023L943.311 56.706C942.939 59.2074 941.645 63.6124 941.047 66.4807C926.233 67.0746 907.909 66.5485 892.84 66.5187C890.317 76.2948 895.595 79.1621 904.801 79.6864C915.172 80.2767 925.988 79.9131 936.409 79.8796C935.25 83.3897 934.508 85.9505 933.673 89.5484Z" fill="black"/>
</g>
<defs>
<clipPath id="clip0_141_58">
<rect width="949.859" height="124" fill="white"/>
</clipPath>
</defs>
</svg>
